<mxfile host="Electron" modified="2024-02-16T06:49:37.734Z" agent="Mozilla/5.0 (Windows NT 10.0; Win64; x64) AppleWebKit/537.36 (KHTML, like Gecko) draw.io/21.2.8 Chrome/112.0.5615.165 Electron/24.2.0 Safari/537.36" etag="xBnL1mAu1kB2RsxBWg8x" version="21.2.8" type="device">
  <diagram name="Page-1" id="2XWkQP5S-hDbL94sL5Vg">
    <mxGraphModel dx="2058" dy="1180" grid="1" gridSize="10" guides="1" tooltips="1" connect="1" arrows="1" fold="1" page="1" pageScale="1" pageWidth="3300" pageHeight="4681" background="#999999" math="0" shadow="0">
      <root>
        <mxCell id="0" />
        <mxCell id="1" parent="0" />
        <mxCell id="APLwThIm-aDqV8bCMrbt-1" value="Transforms" style="rounded=0;whiteSpace=wrap;html=1;fontSize=25;fillColor=#dae8fc;strokeColor=#6c8ebf;" parent="1" vertex="1">
          <mxGeometry x="1298" y="140" width="650" height="60" as="geometry" />
        </mxCell>
        <mxCell id="hmcx4UFESlpqorP7aUg0-1" value="" style="shape=image;verticalLabelPosition=bottom;labelBackgroundColor=default;verticalAlign=top;aspect=fixed;imageAspect=0;image=data:image/png,iVBORw0KGgoAAAANSUhEUgAAAokAAAIJCAYAAADJZ6f5AAAAAXNSR0IArs4c6QAAAARnQU1BAACxjwv8YQUAAAAJcEhZcwAADsMAAA7DAcdvqGQAABrZSURBVHhe7d1rjKV3XcDx/zmzl7LLdrtla6ug3Vu3NxTxhvEGGiBaRIhvMGoUgwq+IBISEm9RRIOJjdFojBGCt4jaFxhIEYzxEuUSxSgBubyg7W7RAqUtbbfbdndnt+Pzfy4zz5zfnLmcM3Mu83w+O2fO85zb85znPOec7z5nZp7e7bc/f2kprVhaNVYoxldOqYeKo4FLzbkR780YC2F3Lb+dMIUl1JEHxbrHtPTq47kwlZmdqyU0cWMtnZGvvHsek/KerHwrVaOr72M1Wp3Wu62IxHKoeOuIfdicsHyRTb7BbO5SaxrxqmNMcUome0fnb/l0xRw9Mlai2bP6tZ01WUjrmcrSGXmi8/VYzt7drG64/L7yrdQbEop1JA4E4uDWw+qrNjg+K8aYoxGvOnvLYD2TXz7jmK9lOw2WEF2y+g2MaOQlNPkrzpWBdtqi2VtGq7YSrv5WD1bDWR4sIvH2VZ8wD249XBlth2O2emyVdc7ayBhXHV17AWzBVOZ1Kka8px1ZQN1ZD4DNWHmbnaCRJzqVuZ246Sye0a68c5NcObMcqoOwHY7ZqvNuve326j1uVQQWQ9VXOby6oQbH17LhBYYb8apjTHEMXbmfXTFHS3fOVgTr7c5YeVnf5aZyRzuzdCdu5CU71kMy+cdzFu9nee7A1sJ8an3UfFu+XBWJA4G4HIHFwJ69e9PBgwfSvr370r79+9LCwsKOvuK354Q1zNXimfzMWnuAaaveZidtOlMdyRzN6jTUybYzipu+cuVKunjxYrp0aTE99dRT6fLiYnF6Nc0mGpvvvVtvva21YXB1IB46dCgdvuZweuSx8+npC4vpQnGDi4tX6gvQTdXKA7BzuvjfvVm9z5OYr/l9vDd6Rxzc8DXKO2i+he185927Z0+6av/e4rAvHb32cHrsscfTE+fOFROpprIqFG8pIrEcynelGSoGjh49WpyykL740KPpkjBk2XauqgCbNb8hsTmzev8mNV/z9/hu5t1wFiOxbd/ePemG665NexZ66ctffqg+tZheOcFe6pdj+W6U9yMfL6WrDx0qhhbS/V94WCB2Ul472gcA2Enz9V6zW94ZLy1eTp//wpfT5SvVp8fVLy+vNGE/D60EYrUZMn/EnLcgspu1I3DwADCrvE6xszZaw3bj2velh76Srjl8uGzAdhP2y+E8Wg8cfPbB8mcQbUFkRfOU2Y1PDWB+eA1iuqaxBk5imnmL4sOPPp4OHDxQjjdN2K9qsR4rjvNvMedfUmE380ILzKP8XtUcdhuvy0zXhYuXygZsCjG3YX/5uVaM5MH8Z27ybzEDAJMkFJmeCxcX0/79+6ssrEOxd/rmW4qhlZ9LPHbjsfTpex4ozxzm6kMH0t49C/XY5i1evpLOPfFUPcb2yy8w1QM7nBchYNZs9LrVRbOyTCY5H7Nxn5t3ybXmZqvvoNXmtxWz/g5826kb09n7zxZDvfI3nMtIbD5uzsfHjt2YPnPPF8rxYX73zrenk6dO1mNra3YW/cCXHm6CND157pH05rf8Uur3tx6YbKS96q33RJv1VRTonvVes7L8urXRZXabWbm/k5yP2bjPzbvkWnOz1XfQdiTOw7vvrae+Lp09e3/rT+C0AnGzrjl8KN1+y03rHm67+VR5eNmLvz29/CXV4bqjz9nSdNiswVUvjw87wG5l/Z5fa71ObTSetU9rnz7vvE9ut9/4tV9On//cp9ID9312zUM+L19mu427dn7kn/8+fceLvq0ei/J5H/6nD9Zj26X5dLmY79Onby6Hm3jbzJbEv3jXH6bnPe9keu+HPpd6/aXqsJAPz6Q7XnAq3XD94XT+/JPlZQ8ePJje85Ez5fDxQ0+lH3/tz6aFhT3l+KAP//PfpePF9Af98Gt+Mv3Hf/5XPba9mmn+6V/8VfqVt769PnWe7KYXRmg06/Vm3yzbzwNvsN0274//LM7/pOZp56aTI/Bld7w6ffHBB+tTVrv2yJH0b//4gfR1Nz1/3Vefrb3jjn9/cgT+we/dmd74prekj/7Hx+pTK+udN6pqS2LzcfPyH9PemrxfwV5vIZ15/Hw6+8QT6f6nzqX/vfh4+r/Fx9Li4jNFcBaH+l9jYd/Gf1Lnu77vFem5J55fBtt/f/wT5XA+7FQgvu61P1Ye52nMZiDm1XGtQ6M9DLNmWuun5wXzKL9f7lwkjWf+n1MLCwtlIJ4798Sah7P3f768zKzJ8ZcjMMdge4viTgTiWkaKxCvPPFMeX/ec/am373J6/PK59NCFR9KDT1e7dOkNrOdXHbmQDhydvV9YyVsQH330sXps1qz3pMzneSNkljXr57D11DoM88XzdVoGQ3FSgZiNFIlNA372wf9LZx77Ynrs8qPp6fREutQ7X56+VK9LeYtjdvCa8+nAs6vzRpE/Ev7Td/xBeuC+T6XffOsvLQ83hxd96zeXl8un58On/uvD5en5uJGv11w+314e/6mf+NH0TS98wfJt5ENzmXzIt9UYnIe73/PuVbc5OF/NPGXNaYOnD+fJyG4yuD63x4et61vdqtJcfqvXA5h97VCcVCBmI37cXHm6iMK9z1pMe69aTHv2X0p7i0OpeI1uAjG75bqvTaeuOVGPjeamUyeWPxb+qZ994/JH0eXPEv7Cm+tLpfTyl35vet0bfr4877HHHy/jLctB2Fwnf6ydb6f9sXb+SPtv7/rz9Ktv+63ly33rN79w+fpZex6y5jbzdfJwlsf/4R//ZXmeckzm6TS3uVMfncP2ys/fYQGXrXf+etdby2Yuv970gEl64L7PbOrA/Kt3y1f/zzv/8soW/hNexmFx2Ls/H1qRWLyWt2/m1JGT5WEcObTami1zTZw1cqA1Ifa5e+5Lz/2ary6Hz5y9f9WWxUH55xPzZd71Z++uT0npvXd/IL3g62+vx+I8NOPNdXK8Zh/+6L+nI0euKYc/8T+fLuex+fnHjXkjZJoGY2yj9XGUy69lo+s1mult9vKNUS4/ynRgN6ueD889cdumDmyf9kfM7Y+et12OtzLgcg/mPa6MoQrEKg735eN9VSRWvyndZOJSurS4mJ5++kI9Pr4ch/k3nvOWucFwGyZvPcxbGPN180fHm/XwI1+ph0aTtzrm+cyhuPHHzd6QmKbNrn9rXS6fNu76O+z6Wz290cxTc7n2MLvXvD7G1k3LYG2DP4M4+DOKO2m0SCwex4sXn04vOnoyfcuRm9I3XX06fePBW9M3POv28vTqItWDnXvxmWeeWf5ll+3SbC18yfd8Z3m8Gfk6OdjW+jM7eWtgPr29xe/Vr7yj3Cq4HXKk/vfHP5le+Yrvr0+BedF+4R71RXyz1xu83E5Pb5jmP7rNf3aZL/nxH3cdmIZ5ne/Zd+XKlfLP3Axzww3Xl5eZNcN+SWVSoThSJObeu/Xmr02v/96Xpte/+OXpZ777B9JPf/cPpdd956vSLTc/Lx04cDB91Vddl659zrVp7769ZST2+9u34uefI2w+bt7sbyc3l8+HYVsf89bJt/3qLy5fLn/c3P74eRT5ZxKb2zty5HD984xeBJiG9da7SayTm53GuPOy0fVHuf18nXHnCzbL+rbd/vwv/7r8O4hr/SHtfPjYh/6pvMwsyX+n8Lff/ushEBtNKN75W2+rT9l+vZtO31z8V7n+69rFt2PHjqXP3Lv+H9N+0xvfkF74jd9Qj0X9fr885Cpv72Hlk5/4VLrzd38/9Yf8Me3dbfAJv9YWCi8KbFZeV7a6lWvYdSa93rXnYdxpD96fzd7eKMtu0FZvg8nbTY/RrNyXnZ6P6d/P5tm+1pxs7RVr/PuSQ3GSe6q79WT9x7SLO1r+TexRIrH8Y9nP5D+YvTV54faKeOz1xvpRyDm0tdUKNrbey9ha1rv8NNbPZj62Y9rt+7TZ2xtcDvl6w5blerc57DrMjt30GM3CfZnEPEz3fjbP+LXmYmuvWPO37g1G4mh/AqeIvLw1MO9ebyuHfB2BCNshv/jM3wvQivy82K7nRnNbW7m99nWa623l+o1h12nfLtPlcZg/s/GYDc5FF9ekrhXbhHlxYlryutc+sHMGl2973LKfDc3zwOMxvkktw9l4rLq+5ojEbdNelbq8SjF91r3RDS67zS7L5jm/1uXXO28tW718V2zXlvP28h08sDmW1cbm+ZOeFSJxW3jCsNM2u45tdV207k7Wess7nzd4vsdnsmZpee+OyGC+icShmhfs9mEtw06H7dKsYxuta5tZF/Nl2geinV4+7dtvH4bZ6Pyu2Mll0PyMrzCDtiISV36z2dOjMezFqHmxbh9gJw2uY8PWOevi7jfsNac5ffDAxoQhDCqfEcW3fGxLYuDFlVlhXWQt7Qhcbx2x/qwmCGGrRCLMpK28+YuBbvK4b01eXvO0zDY7r839mqf7xrzocCS2n1jtA0zLKOuhdXZ32o6tXraa7T7t14jmADund9Pp09UeX+qfSTx+7Fh63/v+qDwTAIBueNWrfi6dOXu2+u9Hb8Q9rgAAsLuJRAAAApEIAEAgEgEACEQiAACBSAQAIBCJAAAE/ervrTb7bS7/YGI5BABAd5Q1WP/d7DxmSyIAAIFIBAAgEIkAAAQiEQCAQCQCABCIRAAAApEIAEAgEgEACEQiAACBSAQAIOiXu16p98S3lPfGUg0CANAxTQfmJrQlEQCAQCQCABCIRAAAApEIAEAgEgEACEQiAACBSAQAIBCJAAAEIhEAgEAkAgAQ9PN+V8pdsOT9r+ShZn8sAAB0RxWEdRPakggAwBpEIgAAgUgEACAQiQAABCIRAIBAJAIAEIhEAAACkQgAQCASAQAIRCIAAIFIBAAgWI7EZnd9AAB0VN51cz1oSyIAAIFIBAAgEIkAAAQiEQCAQCQCABCIRAAAApEIAEAgEgEACEQiAACBSAQAIOhXu17J3+2TDwCgy5a7cGnJlkQAACKRCABAIBIBAAhEIgAAgUgEACAQiQAABCIRAIBAJAIAEIhEAAACkQgAQCASAQAIykhcqnfdvFT/AwCgW6oGLIOwHLIlEQCAQCQCABCIRAAAApEIAEAgEgEACEQiAACBSAQAIBCJAAAEIhEAgEAkAgAQ9Kt98lW7X6m+AQDQRTkLmxy0JREAgEAkAgAQiEQAAAKRCABAIBIBAAhEIgAAgUgEACAQiQAABCIRAIBAJAIAEIhEAACC/sqem5fsvxkAoKuWG7AYWFqyJREAgEgkAgAQiEQAAAKRCABAIBIBAAhEIgAAgUgEACAQiQAABCIRAIBAJAIAEFSRaFd8AAC09E6cPLWU989X/iti8cTx4+nuu/+4Pnu+HTh4qh5iFjz15D31ELPg4J2eH7Pkybd4fsySgwdP1kPMgiefvLceYie98pWvT/edOZN6vSIQi38+bgYAIBCJAAAEIhEAgEAkAgAQiEQAAAKRCABAIBIBAAhEIgAAgUgEACAQiQAABEUk5h3yFfK3vF++agwAgE4pGjC3YPVlSyIAAJFIBAAgEIkAAAQiEQCAQCQCABCIRAAAApEIAEAgEgEACEQiAACBSAQAIOhXe+Grd80HAECnNU1oSyIAAIFIBAAgEIkAAAQiEQCAQCQCABCIRAAAApEIAEAgEgEACEQiAACBSAQAIOjXe+Urv1X/AADomtyAVQdWQ7YkAgAQiEQAAAKRCABAIBIBAAhEIgAAgUgEACAQiQAABCIRAIBAJAIAEIhEAAACkQgAQFBGYr3r5kpzDABAdzRBmL+Kgy2JAAAEIhEAgEAkAgAQiEQAAAKRCABAIBIBAAhEIgAAgUgEACAQiQAABCIRAICgiMRqP3zNnlgAAOiuJgdtSQQAIBCJAAAEIhEAgEAkAgAQiEQAAAKRCABAIBIBAAhEIgAAgUgEACAQiQAABCIRAICg395fc2svzgAAdMxSKwNtSQQAIBCJAAAEIhEAgEAkAgAQiEQAAAKRCABAIBIBAAhEIgAAgUgEACAQiQAABFUklvtgsTs+AIDualqwOC7a0JZEAAACkQgAQCASAQAIRCIAAIFIBAAgEIkAAAQiEQCAQCQCABCIRAAAApEIAEAgEgEACPrLe2wuB+y/GQCgi6oKzPttLgdsSQQAIBKJAAAEIhEAgEAkAgAQiEQAAAKRCABAIBIBAAhEIgAAQe/Y8RNLaSl/FYfi38kTJ9L73//O+mwAALrgFT/4M+m+++5Lvfyv17MlEQCAqIjEvP2wtrInFgAAuqYOwXxkSyIAAIFIBAAgEIkAAAQiEQCAQCQCABCIRAAAApEIAEAgEgEACEQiAACBSAQAIBCJAAAE/fY++gAA6LaqCZdsSQQAIBKJAAAEIhEAgEAkAgAQiEQAAAKRCABAIBIBAAhEIgAAgUgEACAQiQAABHUk5h2wLNk1HwBAh7Vb0JZEAAACkQgAQCASAQAIRCIAAIFIBAAgEIkAAAQiEQCAQCQCABCIRAAAApEIAEAwEIlLq/fHAgBAh1S7as5sSQQAIBCJAAAEIhEAgEAkAgAQiEQAAAKRCABAIBIBAAhEIgAAgUgEACAQiQAABCIRAICgX+6dz/6aAQC6renBevfNtiQCABCIRAAAApEIAEAgEgEACEQiAACBSAQAIBCJAAAEIhEAgEAkAgAQiEQAAIIyEpd3zdfsjgUAgO6pWzAf2ZIIAEAgEgEACEQiAACBSAQAIBCJAAAEIhEAgEAkAgAQiEQAAAKRCABAIBIBAAhEIgAAQRGJ1U767LYZAICmCW1JBAAgEIkAAAQiEQCAQCQCABCIRAAAApEIAEAgEgEACEQiAACBSAQAIBCJAAAEdSTaKR8AQLe1e3DJlkQAACKRCABAIBIBAAhEIgAAgUgEACAQiQAABCIRAIBAJAIAEIhEAAACkQgAQCASAQAI1ohE+3EGAOiuqgVtSQQAIBCJAAAEIhEAgEAkAgAQiEQAAAKRCABAIBIBAAhEIgAAgUgEACAQiQAABP1yzyvl3leWVgYBAOiUqgNXStCWRAAAApEIAEAgEgEACEQiAACBSAQAIBCJAAAEIhEAgEAkAgAQiEQAAAKRCABAIBIBAAj6q/fVbM/NAACdVu3E2ZZEAAAikQgAQCASAQAIRCIAAIFIBAAgEIkAAAQiEQCAQCQCABCIRAAAApEIAEDQ79UD1R75lscAAOiiOgdtSQQAIBCJAAAEIhEAgEAkAgAQiEQAAAKRCABAIBIBAAhEIgAAgUgEACAQiQAABP1yb3zLVo8BANBNtiQCABCIRAAAApEIAEAgEgEACEQiAACBSAQAIBCJAAAEIhEAgEAkAgAQiEQAAAKRCABAIBIBAKgs1YeCSAQAIBCJAAAEIhEAgEAkAgAQiEQAAAKRCABAIBIBAAhEIgAAgUgEACAQiQAABGUk1ntfaQ0AANBVOQltSQQAIBCJAAAEIhEAgEAkAgAQiEQAAAKRCABAIBIBAAhEIgAAgUgEACAQiQAABCIRAICgiEQ7bAYAYDVbEgEACEQiAACBSAQAIBCJAAAEIhEAgEAkAgAQiEQAAAKRCABAIBIBAAhEIgAAgUgEACAQiQAABCIRAIBAJAIAEIhEAAACkQgAQCASAQAIRCIAAIFIBAAgEIkAAAQiEQCAQCQCABCIRAAAKr36uCASAQAIRCIAAIFIBAAgEIkAAAQiEQCAQCQCABCIRAAAApEIAEAgEgEACEQiAABBHYlL1REAAN3VSkJbEgEACEQiAACBSAQAIBCJAAAEIhEAgEAkAgAQiEQAAAKRCABAIBIBAAhEIgAAQR2JvVVHAAB0my2JAAAEIhEAgEAkAgAQiEQAAAKRCABAIBIBAAhEIgAAgUgEACAQiQAABCIRAIBAJAIAEIhEAAAqvfq4IBIBAAhEIgAAgUgEACAQiQAABCIRAIBAJAIAEIhEAAACkQgAQCASAQAIRCIAAIFIBABglbx3PpEIAEAgEgEACEQiAACBSAQAIBCJAAAEIhEAgEAkAgAQiEQAAAKRCABAIBIBAAhEIgAAgUgEACAQiQAABCIRAIBAJAIAEIhEAAACkQgAQCASAQAIRCIAAIFIBAAgEIkAAAQiEQCAoIjEXvGvUH4DAABbEgEAWINIBAAgEIkAAAQiEQCAQCQCABAMRGL9m84AAHRTjsHi0PfnbwAAqNpwJQqrLYlL5ffy5MtXrqSHH360OgEAgF0vt9/ly1fqsUq/zsbmW7p44WK6597Pl8MAAOx+uf0uXLxQj1VNuPwzidVoEYmXLqZ77zlbjwEAsNvl9rt08VI5XDVhr4nEOhGLo/NPnE933fXB9MADD1anAQCwa+Xmy+13/vz5la2GhSISVwIxW1xcTA8++GB6xzvvqk4AAGDXys2X2y83YKlowpyFC9dcc+StvTIQ60os5M+kv/LIuXTmzAPp9Olj6eqrn12fAwDAbpC3IP7O7/xJ+td/+/f0yCOPlKf1chQWh/Lo2LHjS0up+Jd/w7kaqoYLhw9fna6//vr0I6+5I508eWM6derGdPTokepMAADmSv4t5nvuuT/de+/96W/u+kC5BfHc4+eqM3MYlt9yJBaHY8eLSCyisPy2Rizu3bsnHXr2obRv/7501f6r0sJCvzinvOg61j1zXSNfc/RJjmHyE52vuzmVuZ24jqx6hW48ntOx8knOrjaFu9mRJVsY8Z525jGZ/FTzlrjJW2eixVn53Pxnbi5evJAuXrpU/gzi4uLlaqtheYF6C2IzfOz4ibIGqygs3gTyVz1efbVOr74tHw9Tnj+qEa86jWmOY+T5HXleR7+TU1g88/WYzJuO3E02kN8tGKp8k5y0MSY5+lXn535O4zEpP3qdtDEmue4yKs5ajr/l4eq4+oi5OW3l/IFIzLeSj4uB8mv1cDgeorzOpI0xyfXuy7qmcjc7MK/jmMIkxzGVZQRTUr4BdcGId3O8pTOViY5kKuvByItnjHmdsWmWt1t+tY+L7+3T8nhzer7O8SISyzeq/FUOtYcL7dPyv+rE8muY+pqjGfGqXZnmqMaa11FNYZLjTHTOZpcdMo3nSvVyzFBTWDzjTXLEa8/RajCVdXaMSY48v7tpmuVZxSWK4/Jyy8ft06rhciwPHz9RRGJ+TaxjsD1cfa0cD25VHKY8f9LGmOTI8zuVu9mBeR3HFCY5zkSnMrtdMU8Lt3xR3v2mczenMNWpTHLCEx1jchOf12zESY41r9OY5npy9JVHxffyK3+rp1aPrz6vl/4fBZebGbo5Dp4AAAAASUVORK5CYII=;" vertex="1" parent="1">
          <mxGeometry x="1290" y="220" width="649" height="521" as="geometry" />
        </mxCell>
        <mxCell id="hmcx4UFESlpqorP7aUg0-2" value="" style="endArrow=classic;html=1;rounded=0;" edge="1" parent="1">
          <mxGeometry width="50" height="50" relative="1" as="geometry">
            <mxPoint x="1350" y="480" as="sourcePoint" />
            <mxPoint x="1420" y="480" as="targetPoint" />
          </mxGeometry>
        </mxCell>
        <mxCell id="hmcx4UFESlpqorP7aUg0-3" value="Rotation" style="text;html=1;strokeColor=none;fillColor=none;align=center;verticalAlign=middle;whiteSpace=wrap;rounded=0;fontSize=20;" vertex="1" parent="1">
          <mxGeometry x="1560" y="465.5" width="60" height="30" as="geometry" />
        </mxCell>
        <mxCell id="hmcx4UFESlpqorP7aUg0-4" value="Scaling" style="text;html=1;strokeColor=none;fillColor=none;align=center;verticalAlign=middle;whiteSpace=wrap;rounded=0;fontSize=20;" vertex="1" parent="1">
          <mxGeometry x="1770" y="466" width="60" height="30" as="geometry" />
        </mxCell>
      </root>
    </mxGraphModel>
  </diagram>
</mxfile>
